<?xml version="1.0" encoding="UTF-8"?>
<svg version="1.1" xmlns="http://www.w3.org/2000/svg" width="114" height="130">
<path d="M0 0 C2.72207159 0.93864538 4.91141425 2.10157501 7.3671875 3.609375 C14.25686844 7.74487844 21.24550011 11.6891144 28.25146484 15.62402344 C30.17610451 16.70805092 32.08004784 17.82933728 33.96606445 18.97924805 C36.85427576 20.5192408 39.35525198 21.51551724 42.43041992 22.53051758 C48.07122295 24.64849089 52.92773808 26.83118943 56.4921875 31.859375 C59.50603715 42.03077844 58.36803447 53.20665179 57.79681396 63.67333984 C57.60105518 67.64033702 57.51539279 71.6096259 57.41992188 75.58007812 C57.21720072 83.34613073 56.89386287 91.10079399 56.4921875 98.859375 C54.76371196 99.80504443 53.03488229 100.7500666 51.3059082 101.69482422 C50.34320511 102.22115448 49.38050201 102.74748474 48.3886261 103.2897644 C43.37263298 106.00798393 38.30540598 108.6284884 33.23632812 111.24609375 C28.79264874 113.56421922 24.63036563 116.03560299 20.4921875 118.859375 C18.8286396 119.53378631 17.16151808 120.1994071 15.4921875 120.859375 C11.47516867 122.97436846 7.5295789 125.13561356 3.8046875 127.734375 C0.49026275 129.34679785 -0.97245762 128.92665195 -4.5078125 127.859375 C-7.92965805 126.35376296 -11.2141213 124.62549076 -14.5078125 122.859375 C-15.45398437 122.35277344 -16.40015625 121.84617187 -17.375 121.32421875 C-19.50046535 120.18036144 -21.62404175 119.0329898 -23.74609375 117.8828125 C-28.95385108 115.0700287 -34.20069573 112.33088816 -39.44506836 109.5871582 C-43.75258454 107.32843398 -48.03783795 105.03350312 -52.30615234 102.70141602 C-53.28401703 102.16734634 -54.26188171 101.63327667 -55.26937866 101.08302307 C-56.00806183 100.67921921 -56.746745 100.27541534 -57.5078125 99.859375 C-57.80984126 91.13220311 -58.04039189 82.40684363 -58.18137074 73.67557526 C-58.24906047 69.62037368 -58.34072709 65.56876041 -58.48852539 61.515625 C-58.63044226 57.5989863 -58.70762615 53.68578144 -58.74121666 49.76676941 C-58.76512803 48.27680857 -58.81183658 46.78702385 -58.88230324 45.29853821 C-59.0961377 40.59176683 -59.05080062 36.37846925 -57.5078125 31.859375 C-53.55456797 28.12623849 -49.46810962 26.10463922 -44.5078125 23.859375 C-42.72956839 22.84909192 -40.96002506 21.82301914 -39.20703125 20.76953125 C-37.53780416 19.81794782 -35.8672217 18.86873811 -34.1953125 17.921875 C-33.30521484 17.415354 -32.41511719 16.90883301 -31.49804688 16.38696289 C-25.20071747 12.80724441 -18.89194325 9.2475936 -12.5690918 5.71313477 C-9.93334542 4.23769944 -7.37216455 2.76591518 -4.8828125 1.05078125 C-2.5078125 -0.140625 -2.5078125 -0.140625 0 0 Z " fill="#4A82C3" transform="translate(57.5078125,1.140625)"/>
<path d="M0 0 C1.87372098 0.91406438 3.71254203 1.90163033 5.51953125 2.94140625 C6.54111328 3.52470703 7.56269531 4.10800781 8.61523438 4.70898438 C10.19788086 5.62647461 10.19788086 5.62647461 11.8125 6.5625 C12.88693359 7.17802734 13.96136719 7.79355469 15.06835938 8.42773438 C17.71587518 9.94564344 20.35951856 11.46989764 23 13 C22 16 22 16 20.1796875 16.9296875 C19.41914062 17.24164063 18.65859375 17.55359375 17.875 17.875 C12.12754634 20.83498403 10.49400478 25.33061083 7.75390625 30.95703125 C4.83065457 36.02877526 0.97315876 37.88133659 -4.3359375 39.87890625 C-8.73344585 41.72947062 -12.74578146 44.30240302 -16.84375 46.734375 C-20 48 -20 48 -22.66015625 47.33984375 C-23.43230469 46.89769531 -24.20445313 46.45554688 -25 46 C-25.64839844 45.65582031 -26.29679687 45.31164063 -26.96484375 44.95703125 C-27.61582031 44.57933594 -28.26679687 44.20164063 -28.9375 43.8125 C-35.16250808 40.28851237 -41.58768966 37.16510909 -48 34 C-48.66 35.32 -49.32 36.64 -50 38 C-49.13375 38.2475 -48.2675 38.495 -47.375 38.75 C-44.4766793 39.82345211 -42.35542501 41.01184396 -39.85546875 42.78125 C-35.74945418 45.47825325 -31.32417022 47.67971354 -27 50 C-27 54.95 -27 59.9 -27 65 C-31.97827429 63.34057524 -34.99974286 62.18202273 -39 59 C-39.27070312 58.19820312 -39.54140625 57.39640625 -39.8203125 56.5703125 C-41.40604607 53.11530359 -43.26665381 52.3666731 -46.625 50.6875 C-47.62789062 50.17574219 -48.63078125 49.66398437 -49.6640625 49.13671875 C-50.43492188 48.76160156 -51.20578125 48.38648438 -52 48 C-52.07979395 52.18250087 -52.10033148 56.35994921 -52.06713867 60.54272461 C-52.06406546 61.96367938 -52.07688735 63.38476422 -52.10620117 64.80541992 C-52.19312437 69.31752401 -52.13238885 73.59789675 -51 78 C-48.31325935 80.73124695 -45.62334638 81.88733193 -42 83 C-41.34 83.33 -40.68 83.66 -40 84 C-39.505 82.515 -39.505 82.515 -39 81 C-30.375 83.46428571 -30.375 83.46428571 -27 87 C-26.4772958 91.70433783 -26.6597016 96.28623692 -27 101 C-30.8588702 100.3979468 -33.82735575 99.23989556 -37.2734375 97.41796875 C-38.2634375 96.89783203 -39.2534375 96.37769531 -40.2734375 95.84179688 C-41.29695313 95.29587891 -42.32046875 94.74996094 -43.375 94.1875 C-44.39078125 93.65318359 -45.4065625 93.11886719 -46.453125 92.56835938 C-51.69606523 89.80049547 -56.84899059 86.94343395 -62 84 C-62 66.51 -62 49.02 -62 31 C-60.35 31.33 -58.7 31.66 -57 32 C-56.8246875 31.43539062 -56.649375 30.87078125 -56.46875 30.2890625 C-54.26625594 26.85645208 -50.97755015 25.31801829 -47.5 23.375 C-46.74605957 22.9426001 -45.99211914 22.5102002 -45.21533203 22.06469727 C-39.05484536 18.5466916 -32.84626219 15.10970768 -26.62231445 11.70532227 C-22.9218969 9.67144637 -19.28232984 7.58354991 -15.70703125 5.3359375 C-15.02850098 4.9119165 -14.3499707 4.48789551 -13.65087891 4.05102539 C-12.37796903 3.248057 -11.11269712 2.43279892 -9.85693359 1.60327148 C-6.04018609 -0.80129027 -4.28499505 -1.25982804 0 0 Z " fill="#60B9F2" transform="translate(73,15)"/>
<path d="M0 0 C0.28527105 3.37887713 0.45018698 6.63173355 0 10 C-2.43850852 12.18182341 -3.7321149 13 -7 13 C-7 11.68 -7 10.36 -7 9 C-10.49233599 10.99307837 -13.98322104 12.98826271 -17.46484375 15 C-27.9058086 21.01930943 -27.9058086 21.01930943 -32.625 23.3125 C-36.64214847 25.23073356 -36.64214847 25.23073356 -40 28 C-40.48517403 31.42764055 -40.48517403 31.42764055 -40.25 35.1875 C-40.19585937 37.09595703 -40.19585937 37.09595703 -40.140625 39.04296875 C-40.09421875 40.01878906 -40.0478125 40.99460938 -40 42 C-39.45730469 41.72285156 -38.91460937 41.44570312 -38.35546875 41.16015625 C-37.28232422 40.61681641 -37.28232422 40.61681641 -36.1875 40.0625 C-35.12595703 39.52302734 -35.12595703 39.52302734 -34.04296875 38.97265625 C-32 38 -32 38 -29 37 C-28.67 48.55 -28.34 60.1 -28 72 C-25.03 71.01 -25.03 71.01 -22 70 C-23.30235911 73.90707734 -24.65157487 74.17733948 -28.2421875 76.06640625 C-29.30824219 76.63423828 -30.37429687 77.20207031 -31.47265625 77.78710938 C-32.59542969 78.37298828 -33.71820313 78.95886719 -34.875 79.5625 C-37.08128933 80.72941025 -39.28704306 81.8973339 -41.4921875 83.06640625 C-42.47558105 83.58146729 -43.45897461 84.09652832 -44.47216797 84.62719727 C-47.12917163 86.02084859 -47.12917163 86.02084859 -50 88 C-56.15203132 87.93374736 -61.18643082 84.40186798 -66.375 81.4375 C-67.30183594 80.91736328 -68.22867188 80.39722656 -69.18359375 79.86132812 C-71.46034654 78.58212166 -73.73213523 77.29487762 -76 76 C-74.15625 75.4140625 -74.15625 75.4140625 -72 75 C-69.5 76.375 -69.5 76.375 -67 78 C-65.67618443 78.36932536 -64.34335905 78.70969783 -63 79 C-62.71390692 74.14307094 -62.72160473 69.7153924 -64 65 C-67.31541688 62.01406554 -70.80703424 60.45061418 -75 59 C-75.33 60.32 -75.66 61.64 -76 63 C-80.27098004 60.96619998 -84.33971437 59.01197169 -88 56 C-88.68115234 52.79199219 -88.68115234 52.79199219 -88.5859375 49.046875 C-88.57744781 48.38665344 -88.56895813 47.72643188 -88.56021118 47.04620361 C-88.5267285 44.94577947 -88.45148521 42.84925453 -88.375 40.75 C-88.34489256 39.3229723 -88.31751808 37.89588414 -88.29296875 36.46875 C-88.22696218 32.97790827 -88.12348826 29.4893349 -88 26 C-83.67696276 27.71616723 -79.8904033 29.43086574 -76 32 C-75.57654297 33.20269531 -75.57654297 33.20269531 -75.14453125 34.4296875 C-73.59730032 37.90435628 -71.73258078 38.63370961 -68.375 40.3125 C-66.60125 41.199375 -64.8275 42.08625 -63 43 C-63 38.05 -63 33.1 -63 28 C-64.65 27.34 -66.3 26.68 -68 26 C-69.8054865 25.0679642 -71.59691191 24.108298 -73.375 23.125 C-74.32761719 22.5990625 -75.28023437 22.073125 -76.26171875 21.53125 C-79.52063744 19.70885895 -82.76699195 17.8679602 -86 16 C-85.625 14.0625 -85.625 14.0625 -85 12 C-84.34 11.67 -83.68 11.34 -83 11 C-81.21923828 11.69335938 -81.21923828 11.69335938 -79.0703125 12.84375 C-78.28108398 13.26350098 -77.49185547 13.68325195 -76.67871094 14.11572266 C-75.83598633 14.57253418 -74.99326172 15.0293457 -74.125 15.5 C-73.26165039 15.95036621 -72.39830078 16.40073242 -71.50878906 16.86474609 C-67.6937616 18.877876 -64.02045723 20.86661539 -60.6015625 23.5078125 C-57.68753843 25.67137558 -55.52598551 27.11850362 -52 28 C-47.24402497 26.6724827 -43.44394226 24.16291226 -39.36279297 21.48291016 C-34.66536284 18.53476068 -29.70876535 16.03623203 -24.8125 13.4375 C-17.41868274 9.44879812 -10.07984385 5.40316668 -2.87890625 1.07421875 C-1 0 -1 0 0 0 Z " fill="#4B81C0" transform="translate(109,37)"/>
<path d="M0 0 C2.72207159 0.93864538 4.91141425 2.10157501 7.3671875 3.609375 C13.39818932 7.22649063 19.49163166 10.7171681 25.6171875 14.171875 C26.60323975 14.72866943 27.58929199 15.28546387 28.60522461 15.85913086 C37.54446042 20.90089778 46.51123068 25.8923789 55.4921875 30.859375 C55.4921875 31.849375 55.4921875 32.839375 55.4921875 33.859375 C53.30200195 35.37060547 53.30200195 35.37060547 50.4921875 36.859375 C49.29178833 37.54797607 49.29178833 37.54797607 48.06713867 38.25048828 C47.23158447 38.72212402 46.39603027 39.19375977 45.53515625 39.6796875 C44.59518799 40.21070068 43.65521973 40.74171387 42.68676758 41.28881836 C41.69443115 41.84835205 40.70209473 42.40788574 39.6796875 42.984375 C38.65447998 43.5626001 37.62927246 44.1408252 36.57299805 44.73657227 C34.50677125 45.90186662 32.44044767 47.06698939 30.37402344 48.23193359 C27.86110554 49.65103819 25.35145313 51.07561543 22.84375 52.50390625 C15.16751989 56.86722754 7.44675657 61.01767971 -0.5078125 64.859375 C-1.8278125 63.539375 -3.1478125 62.219375 -4.5078125 60.859375 C-2.5924999 59.81522071 -0.67546369 58.77422811 1.2421875 57.734375 C1.82693848 57.41162598 2.41168945 57.08887695 3.01416016 56.75634766 C5.90544305 55.17723245 8.72481864 53.7643333 11.78125 52.515625 C19.65082563 49.24825689 22.51536013 45.59779988 25.89453125 37.78515625 C27.71068383 34.45924359 29.13125226 33.48956091 32.4921875 31.859375 C36.14162288 29.98925008 36.14162288 29.98925008 38.4921875 26.859375 C37.75863037 26.58375732 37.02507324 26.30813965 36.26928711 26.02416992 C33.67544738 24.93623943 31.44005888 23.70933457 29.05859375 22.22265625 C27.8375293 21.48112305 27.8375293 21.48112305 26.59179688 20.72460938 C24.89798367 19.68798005 23.21044011 18.64103732 21.52929688 17.58398438 C16.75708873 14.67410493 16.75708873 14.67410493 11.34765625 13.765625 C7.72409054 15.1535845 4.50490165 16.97598348 1.2421875 19.046875 C0.2526709 19.65752808 0.2526709 19.65752808 -0.75683594 20.28051758 C-2.07589581 21.09471034 -3.39269193 21.91258368 -4.70703125 22.734375 C-11.22971909 26.80928628 -17.85100825 30.6465794 -24.63671875 34.265625 C-26.67625385 35.3977751 -28.68162151 36.59246018 -30.66015625 37.828125 C-32.22443359 38.80265625 -32.22443359 38.80265625 -33.8203125 39.796875 C-35.23763672 40.70759766 -35.23763672 40.70759766 -36.68359375 41.63671875 C-40.1256956 43.12686796 -41.94195759 42.87528808 -45.5078125 41.859375 C-47.0703125 40.421875 -47.0703125 40.421875 -48.5078125 38.859375 C-49.3121875 38.570625 -50.1165625 38.281875 -50.9453125 37.984375 C-54.15968287 36.57318801 -55.41504288 34.62307501 -57.5078125 31.859375 C-42.8443355 22.60968635 -27.69866907 14.17053226 -12.5690918 5.71313477 C-9.93334542 4.23769944 -7.37216455 2.76591518 -4.8828125 1.05078125 C-2.5078125 -0.140625 -2.5078125 -0.140625 0 0 Z " fill="#1AA4DE" transform="translate(57.5078125,1.140625)"/>
<path d="M0 0 C3.21905111 0.80476278 4.90873796 1.3720962 7.6171875 3.00390625 C8.30047119 3.41141113 8.98375488 3.81891602 9.68774414 4.23876953 C10.40953857 4.67560059 11.13133301 5.11243164 11.875 5.5625 C13.39147034 6.4682131 14.9084054 7.3731485 16.42578125 8.27734375 C17.18713379 8.73222168 17.94848633 9.18709961 18.73291016 9.65576172 C24.11205189 12.84524636 29.56349891 15.90977833 35 19 C35 23.95 35 28.9 35 34 C30.02172571 32.34057524 27.00025714 31.18202273 23 28 C22.72929688 27.19820312 22.45859375 26.39640625 22.1796875 25.5703125 C20.59395393 22.11530359 18.73334619 21.3666731 15.375 19.6875 C14.37210938 19.17574219 13.36921875 18.66398437 12.3359375 18.13671875 C11.56507812 17.76160156 10.79421875 17.38648437 10 17 C9.92020605 21.18250087 9.89966852 25.35994921 9.93286133 29.54272461 C9.93593454 30.96367938 9.92311265 32.38476422 9.89379883 33.80541992 C9.80687563 38.31752401 9.86761115 42.59789675 11 47 C13.68674065 49.73124695 16.37665362 50.88733193 20 52 C20.66 52.33 21.32 52.66 22 53 C22.33 52.01 22.66 51.02 23 50 C31.625 52.46428571 31.625 52.46428571 35 56 C35.5227042 60.70433783 35.3402984 65.28623692 35 70 C31.1411298 69.3979468 28.17264425 68.23989556 24.7265625 66.41796875 C23.7365625 65.89783203 22.7465625 65.37769531 21.7265625 64.84179688 C20.70304687 64.29587891 19.67953125 63.74996094 18.625 63.1875 C17.60921875 62.65318359 16.5934375 62.11886719 15.546875 61.56835938 C10.30393477 58.80049547 5.15100941 55.94343395 0 53 C0 35.51 0 18.02 0 0 Z " fill="#F6F8FB" transform="translate(11,46)"/>
<path d="M0 0 C0.99 0 1.98 0 3 0 C3 5.28 3 10.56 3 16 C-0.96 17.98 -0.96 17.98 -5 20 C-5.33 32.21 -5.66 44.42 -6 57 C-9.96 58.98 -13.92 60.96 -18 63 C-18 51.12 -18 39.24 -18 27 C-22.455 29.475 -22.455 29.475 -27 32 C-28.485 32.495 -28.485 32.495 -30 33 C-31.2169965 19.71445492 -31.2169965 19.71445492 -28.39453125 15.73828125 C-25.63936049 13.68611841 -22.95258746 12.35990306 -19.74609375 11.1484375 C-15.90755863 9.54313263 -12.36238407 7.49383014 -8.75 5.4375 C-8.0178125 5.02564453 -7.285625 4.61378906 -6.53125 4.18945312 C-3.06007072 2.38064348 -3.06007072 2.38064348 0 0 Z " fill="#FCFDFE" transform="translate(98,47)"/>
<path d="M0 0 C4.13587618 0.47721648 7.49795014 2.9122395 11 5 C9.72819263 8.8154221 8.57541154 9.08022056 5.1015625 10.96875 C4.07353516 11.53480957 3.04550781 12.10086914 1.98632812 12.68408203 C0.87708984 13.28333496 -0.23214844 13.88258789 -1.375 14.5 C-3.66478299 15.75650041 -5.95383844 17.0143275 -8.2421875 18.2734375 C-9.38397461 18.89959961 -10.52576172 19.52576172 -11.70214844 20.17089844 C-17.09905795 23.16420952 -22.41810095 26.28955187 -27.72021484 29.44726562 C-32.66505274 32.35345226 -37.71502627 34.77320259 -43 37 C-43.43957031 36.52949219 -43.87914062 36.05898438 -44.33203125 35.57421875 C-46.36927194 33.65148339 -48.37802622 32.92123403 -51 32 C-49.51186186 27.96201112 -47.46815856 26.88297391 -43.6875 25 C-37.55255389 21.83730605 -31.54616961 18.50312344 -25.5625 15.0625 C-24.66329834 14.54647217 -23.76409668 14.03044434 -22.83764648 13.4987793 C-21.06159184 12.47945177 -19.28578853 11.45968618 -17.51025391 10.43945312 C-15.20137935 9.11547682 -12.88899051 7.79800665 -10.57421875 6.484375 C-9.9205835 6.11304443 -9.26694824 5.74171387 -8.59350586 5.35913086 C-6.87002789 4.38064456 -5.14597291 3.40317479 -3.421875 2.42578125 C-1.12809073 1.21163108 -1.12809073 1.21163108 0 0 Z " fill="#62BDF5" transform="translate(55,6)"/>
<path d="M0 0 C2.04049422 1.2704964 4.05017465 2.59431196 6 4 C3.14503648 7.09744102 0.39032523 9.08819745 -3.32421875 11.05859375 C-4.35353516 11.60966797 -5.38285156 12.16074219 -6.44335938 12.72851562 C-7.51392578 13.29248047 -8.58449219 13.85644531 -9.6875 14.4375 C-11.79578565 15.56079873 -13.90386178 16.68449081 -16.01171875 17.80859375 C-17.02411621 18.34339355 -18.03651367 18.87819336 -19.07958984 19.42919922 C-22.52502052 21.28239275 -25.90552114 23.23659795 -29.26879883 25.23461914 C-29.84009521 25.48719482 -30.4113916 25.73977051 -31 26 C-31.66 25.67 -32.32 25.34 -33 25 C-32.27554688 24.63390625 -31.55109375 24.2678125 -30.8046875 23.890625 C-25.01626871 20.64911048 -21.63091031 18.19587162 -19 12 C-16.40234397 5.97919376 -13.21710063 3.37891655 -7.68359375 0.01171875 C-4.54835383 -1.17027126 -3.14457155 -1.05856864 0 0 Z " fill="#61BAF4" transform="translate(103,32)"/>
<path d="M0 0 C1.175625 0.0825 2.35125 0.165 3.5625 0.25 C5.71752531 3.48253796 6.03106135 4.50150923 5.5625 8.25 C4.29492188 9.91674805 4.29492188 9.91674805 2.5625 11.25 C0.66992188 11.34301758 0.66992188 11.34301758 -1.46875 11.08203125 C-7.64850045 10.87828948 -11.82136285 13.76132461 -16.9375 16.9375 C-18.71851694 18.00429544 -20.49976491 19.07070528 -22.28125 20.13671875 C-23.13847656 20.65669434 -23.99570312 21.17666992 -24.87890625 21.71240234 C-27.3916774 23.22246272 -29.91857248 24.6985806 -32.46875 26.14453125 C-33.18611328 26.5516333 -33.90347656 26.95873535 -34.64257812 27.37817383 C-36.4375 28.25 -36.4375 28.25 -38.4375 28.25 C-38.7675 29.24 -39.0975 30.23 -39.4375 31.25 C-42.0775 29.93 -44.7175 28.61 -47.4375 27.25 C-46.7775 26.59 -46.1175 25.93 -45.4375 25.25 C-44.21804687 25.28351562 -42.99859375 25.31703125 -41.7421875 25.3515625 C-37.18469946 25.46051463 -34.46483499 24.0312897 -30.5625 21.625 C-29.96171631 21.26180664 -29.36093262 20.89861328 -28.74194336 20.52441406 C-27.53192658 19.79095327 -26.32631041 19.05017719 -25.12548828 18.30175781 C-22.7702781 16.83426498 -20.38427324 15.41964361 -18 14 C-17.21753906 13.52046875 -16.43507813 13.0409375 -15.62890625 12.546875 C-14.22681512 11.71711697 -12.79760497 10.93064829 -11.33984375 10.203125 C-7.94062771 8.50002703 -6.59880334 7.62393046 -5.0625 4.0625 C-4.85625 3.134375 -4.65 2.20625 -4.4375 1.25 C-3.4375 0.25 -3.4375 0.25 0 0 Z " fill="#22A9E0" transform="translate(73.4375,21.75)"/>
<path d="M0 0 C0 0.99 0 1.98 0 3 C-1.5390625 3.96484375 -1.5390625 3.96484375 -3.625 4.9375 C-7.73065431 7.29179128 -9.0185917 9.62721866 -10.875 13.9375 C-13.4590603 19.74806652 -16.16575874 22.06243721 -21.828125 24.81640625 C-24.29898819 25.94454957 -24.29898819 25.94454957 -26 29 C-28.00021095 30.13862424 -30.04903226 31.19368565 -32.125 32.1875 C-33.22070312 32.71730469 -34.31640625 33.24710938 -35.4453125 33.79296875 C-36.28835937 34.19128906 -37.13140625 34.58960938 -38 35 C-39.32 33.68 -40.64 32.36 -42 31 C-40.0846874 29.95584571 -38.16765119 28.91485311 -36.25 27.875 C-35.66524902 27.55225098 -35.08049805 27.22950195 -34.47802734 26.89697266 C-31.58674445 25.31785745 -28.76736886 23.9049583 -25.7109375 22.65625 C-17.84136187 19.38888189 -14.97682737 15.73842488 -11.59765625 7.92578125 C-9.77775617 4.5930058 -8.35493272 3.65384007 -5 2 C-2 0 -2 0 0 0 Z " fill="#23AAE1" transform="translate(95,31)"/>
<path d="M0 0 C0.66 0.33 1.32 0.66 2 1 C2 1.66 2 2.32 2 3 C0.89785156 3.60585938 -0.20429687 4.21171875 -1.33984375 4.8359375 C-11.33982234 10.35159584 -21.23170527 16.02133356 -31.05322266 21.84814453 C-35.68761495 24.59018903 -40.34579564 27.29177318 -45 30 C-45.99 29.01 -46.98 28.02 -48 27 C-46.948125 26.505 -45.89625 26.01 -44.8125 25.5 C-40.3668263 23.2850177 -36.19567983 20.69054442 -31.98486328 18.06225586 C-27.74984575 15.43130129 -23.44620253 12.99908715 -19.046875 10.65625 C-16.61693109 9.33535741 -14.22041446 7.98045964 -11.828125 6.59375 C-11.10278564 6.17601318 -10.37744629 5.75827637 -9.63012695 5.32788086 C-8.18491109 4.49383634 -6.74322943 3.65363323 -5.30541992 2.80688477 C-3.57043648 1.81052614 -1.78823375 0.89728376 0 0 Z " fill="#23AAE1" transform="translate(63,14)"/>
<path d="M0 0 C18.53191489 8.38297872 18.53191489 8.38297872 26 14 C23.3333581 15.33332095 21.83319697 14.67102033 19 14 C19 14.66 19 15.32 19 16 C14.26525903 14.3003494 10.03832889 11.86340973 5.6875 9.375 C4.94693359 8.95476563 4.20636719 8.53453125 3.44335938 8.1015625 C1.62730989 7.07051505 -0.18656533 6.03563954 -2 5 C-1.125 1.125 -1.125 1.125 0 0 Z " fill="#5E9AD5" transform="translate(25,48)"/>
<path d="M0 0 C0.33 1.32 0.66 2.64 1 4 C-3.29 6.31 -7.58 8.62 -12 11 C-13.32 9.68 -14.64 8.36 -16 7 C-13.89983377 5.82558465 -11.79541245 4.66035988 -9.6875 3.5 C-9.09259766 3.16613281 -8.49769531 2.83226562 -7.88476562 2.48828125 C-5.04171156 0.93174886 -3.29339012 0 0 0 Z " fill="#24A8DF" transform="translate(69,55)"/>
<path d="M0 0 C3.3 1.65 6.6 3.3 10 5 C9.67 6.32 9.34 7.64 9 9 C4.87248551 8.39301257 1.6678852 6.96189209 -2 5 C-1.125 1.125 -1.125 1.125 0 0 Z " fill="#5180C0" transform="translate(25,48)"/>
<path d="M0 0 C0.66 0 1.32 0 2 0 C1.67 1.32 1.34 2.64 1 4 C0.34 4 -0.32 4 -1 4 C-1 15.22 -1 26.44 -1 38 C-1.33 38 -1.66 38 -2 38 C-2.04936158 32.90968245 -2.08570105 27.81950357 -2.10986328 22.72900391 C-2.11993376 20.99655735 -2.13359089 19.26412784 -2.15087891 17.53173828 C-2.17508162 15.04455361 -2.18647239 12.55759325 -2.1953125 10.0703125 C-2.20563507 9.29317902 -2.21595764 8.51604553 -2.22659302 7.71536255 C-2.22699271 5.80874507 -2.1223214 3.90268964 -2 2 C-1.34 1.34 -0.68 0.68 0 0 Z " fill="#80AAD6" transform="translate(94,65)"/>
<path d="M0 0 C2.64 1.32 5.28 2.64 8 4 C7.34 5.32 6.68 6.64 6 8 C2.62496331 6.8141763 0.35277269 5.72426311 -2 3 C-1.34 2.01 -0.68 1.02 0 0 Z " fill="#63A1DC" transform="translate(17,44)"/>
<path d="M0 0 C0.33 0.66 0.66 1.32 1 2 C1.66 2.33 2.32 2.66 3 3 C0.88002166 4.19733988 -1.24513676 5.38298713 -3.375 6.5625 C-3.97828125 6.90474609 -4.5815625 7.24699219 -5.203125 7.59960938 C-6.76978241 8.46127095 -8.38290862 9.23718183 -10 10 C-10.66 9.67 -11.32 9.34 -12 9 C-11.21753906 8.51789062 -10.43507813 8.03578125 -9.62890625 7.5390625 C-8.61699219 6.90742187 -7.60507813 6.27578125 -6.5625 5.625 C-5.55316406 4.99851562 -4.54382813 4.37203125 -3.50390625 3.7265625 C-0.91988937 2.24183698 -0.91988937 2.24183698 0 0 Z " fill="#54AAE4" transform="translate(82,48)"/>
<path d="M0 0 C5.28137429 0.51525603 8.57221156 2.25477117 13 5 C12.34 5.66 11.68 6.32 11 7 C7.37 5.02 3.74 3.04 0 1 C0 0.67 0 0.34 0 0 Z " fill="#4670AF" transform="translate(33,112)"/>
<path d="M0 0 C4.8274799 1.41292095 8.7162359 3.42974154 13 6 C12.34 6.66 11.68 7.32 11 8 C10.34 7.34 9.68 6.68 9 6 C6.68191636 4.96514123 4.34824702 3.9644586 2 3 C1.34 2.67 0.68 2.34 0 2 C0 1.34 0 0.68 0 0 Z " fill="#4F79B5" transform="translate(20,104)"/>
<path d="M0 0 C-4.29 2.31 -8.58 4.62 -13 7 C-13.66 6.34 -14.32 5.68 -15 5 C-13.06891037 3.96709159 -11.129882 2.94901328 -9.1875 1.9375 C-8.10855469 1.36902344 -7.02960937 0.80054688 -5.91796875 0.21484375 C-3 -1 -3 -1 0 0 Z " fill="#4FA2DD" transform="translate(70,59)"/>
</svg>
